<mxfile host="app.diagrams.net" modified="2024-04-07T15:01:35.046Z" agent="Mozilla/5.0 (Windows NT 10.0; Win64; x64) AppleWebKit/537.36 (KHTML, like Gecko) Chrome/123.0.0.0 Safari/537.36 Edg/123.0.0.0" etag="lxtuir8ye3m3GJ8612f3" version="24.2.2" type="device">
  <diagram id="R2lEEEUBdFMjLlhIrx00" name="Page-1">
    <mxGraphModel dx="2276" dy="793" grid="1" gridSize="10" guides="1" tooltips="1" connect="1" arrows="1" fold="1" page="1" pageScale="1" pageWidth="850" pageHeight="1100" math="0" shadow="0" extFonts="Permanent Marker^https://fonts.googleapis.com/css?family=Permanent+Marker">
      <root>
        <mxCell id="0" />
        <mxCell id="1" parent="0" />
        <mxCell id="X_LSW5ncMZYZCzvjUDPp-1" value="Pessoa" style="rounded=0;whiteSpace=wrap;html=1;" parent="1" vertex="1">
          <mxGeometry x="540" y="212" width="70" height="30" as="geometry" />
        </mxCell>
        <mxCell id="X_LSW5ncMZYZCzvjUDPp-3" value="Cliente" style="whiteSpace=wrap;html=1;" parent="1" vertex="1">
          <mxGeometry x="780" y="330" width="70" height="30" as="geometry" />
        </mxCell>
        <mxCell id="X_LSW5ncMZYZCzvjUDPp-5" value="Funcionário" style="whiteSpace=wrap;html=1;" parent="1" vertex="1">
          <mxGeometry x="455" y="375" width="80" height="30" as="geometry" />
        </mxCell>
        <mxCell id="X_LSW5ncMZYZCzvjUDPp-6" value="&lt;div&gt;&lt;br&gt;&lt;/div&gt;&lt;div&gt;IS-A&lt;/div&gt;" style="triangle;whiteSpace=wrap;html=1;direction=north;" parent="1" vertex="1">
          <mxGeometry x="550" y="270" width="50" height="40" as="geometry" />
        </mxCell>
        <mxCell id="X_LSW5ncMZYZCzvjUDPp-7" value="" style="shape=link;html=1;rounded=0;entryX=0.5;entryY=1;entryDx=0;entryDy=0;exitX=1;exitY=0.5;exitDx=0;exitDy=0;" parent="1" source="X_LSW5ncMZYZCzvjUDPp-6" target="X_LSW5ncMZYZCzvjUDPp-1" edge="1">
          <mxGeometry width="100" relative="1" as="geometry">
            <mxPoint x="370" y="410" as="sourcePoint" />
            <mxPoint x="470" y="410" as="targetPoint" />
          </mxGeometry>
        </mxCell>
        <mxCell id="X_LSW5ncMZYZCzvjUDPp-8" value="" style="endArrow=none;html=1;rounded=0;entryX=0.018;entryY=0.014;entryDx=0;entryDy=0;entryPerimeter=0;exitX=1;exitY=0;exitDx=0;exitDy=0;" parent="1" source="X_LSW5ncMZYZCzvjUDPp-5" target="X_LSW5ncMZYZCzvjUDPp-6" edge="1">
          <mxGeometry width="50" height="50" relative="1" as="geometry">
            <mxPoint x="470" y="455" as="sourcePoint" />
            <mxPoint x="620.1500000000001" y="335.43999999999994" as="targetPoint" />
          </mxGeometry>
        </mxCell>
        <mxCell id="X_LSW5ncMZYZCzvjUDPp-12" value="" style="endArrow=none;html=1;rounded=0;entryX=-0.011;entryY=1.009;entryDx=0;entryDy=0;entryPerimeter=0;exitX=0;exitY=0;exitDx=0;exitDy=0;" parent="1" source="X_LSW5ncMZYZCzvjUDPp-3" target="X_LSW5ncMZYZCzvjUDPp-6" edge="1">
          <mxGeometry width="50" height="50" relative="1" as="geometry">
            <mxPoint x="400" y="430" as="sourcePoint" />
            <mxPoint x="450" y="380" as="targetPoint" />
          </mxGeometry>
        </mxCell>
        <mxCell id="X_LSW5ncMZYZCzvjUDPp-14" value="&lt;u&gt;nif&lt;/u&gt;" style="ellipse;whiteSpace=wrap;html=1;align=center;" parent="1" vertex="1">
          <mxGeometry x="490" y="155" width="50" height="20" as="geometry" />
        </mxCell>
        <mxCell id="X_LSW5ncMZYZCzvjUDPp-16" value="nome" style="ellipse;whiteSpace=wrap;html=1;" parent="1" vertex="1">
          <mxGeometry x="440" y="190" width="60" height="30" as="geometry" />
        </mxCell>
        <mxCell id="X_LSW5ncMZYZCzvjUDPp-17" value="morada" style="ellipse;whiteSpace=wrap;html=1;" parent="1" vertex="1">
          <mxGeometry x="550" y="140" width="60" height="30" as="geometry" />
        </mxCell>
        <mxCell id="X_LSW5ncMZYZCzvjUDPp-18" value="&lt;u&gt;telefone&lt;/u&gt;" style="ellipse;whiteSpace=wrap;html=1;" parent="1" vertex="1">
          <mxGeometry x="620" y="155" width="60" height="40" as="geometry" />
        </mxCell>
        <mxCell id="X_LSW5ncMZYZCzvjUDPp-19" value="&lt;u&gt;email&lt;/u&gt;" style="ellipse;whiteSpace=wrap;html=1;" parent="1" vertex="1">
          <mxGeometry x="650" y="212" width="70" height="30" as="geometry" />
        </mxCell>
        <mxCell id="X_LSW5ncMZYZCzvjUDPp-21" value="" style="endArrow=none;html=1;rounded=0;entryX=0;entryY=0.5;entryDx=0;entryDy=0;exitX=1;exitY=1;exitDx=0;exitDy=0;" parent="1" source="X_LSW5ncMZYZCzvjUDPp-16" target="X_LSW5ncMZYZCzvjUDPp-1" edge="1">
          <mxGeometry width="50" height="50" relative="1" as="geometry">
            <mxPoint x="400" y="220" as="sourcePoint" />
            <mxPoint x="450" y="170" as="targetPoint" />
          </mxGeometry>
        </mxCell>
        <mxCell id="X_LSW5ncMZYZCzvjUDPp-22" value="" style="endArrow=none;html=1;rounded=0;entryX=1;entryY=1;entryDx=0;entryDy=0;exitX=0.25;exitY=0;exitDx=0;exitDy=0;" parent="1" source="X_LSW5ncMZYZCzvjUDPp-1" target="X_LSW5ncMZYZCzvjUDPp-14" edge="1">
          <mxGeometry width="50" height="50" relative="1" as="geometry">
            <mxPoint x="400" y="220" as="sourcePoint" />
            <mxPoint x="540" y="180" as="targetPoint" />
          </mxGeometry>
        </mxCell>
        <mxCell id="X_LSW5ncMZYZCzvjUDPp-23" value="" style="endArrow=none;html=1;rounded=0;entryX=0.5;entryY=1;entryDx=0;entryDy=0;exitX=0.5;exitY=0;exitDx=0;exitDy=0;" parent="1" source="X_LSW5ncMZYZCzvjUDPp-1" target="X_LSW5ncMZYZCzvjUDPp-17" edge="1">
          <mxGeometry width="50" height="50" relative="1" as="geometry">
            <mxPoint x="400" y="220" as="sourcePoint" />
            <mxPoint x="450" y="170" as="targetPoint" />
          </mxGeometry>
        </mxCell>
        <mxCell id="X_LSW5ncMZYZCzvjUDPp-24" value="" style="endArrow=none;html=1;rounded=0;entryX=0;entryY=1;entryDx=0;entryDy=0;exitX=0.75;exitY=0;exitDx=0;exitDy=0;" parent="1" source="X_LSW5ncMZYZCzvjUDPp-1" target="X_LSW5ncMZYZCzvjUDPp-18" edge="1">
          <mxGeometry width="50" height="50" relative="1" as="geometry">
            <mxPoint x="400" y="220" as="sourcePoint" />
            <mxPoint x="450" y="170" as="targetPoint" />
          </mxGeometry>
        </mxCell>
        <mxCell id="X_LSW5ncMZYZCzvjUDPp-25" value="" style="endArrow=none;html=1;rounded=0;entryX=0;entryY=0.5;entryDx=0;entryDy=0;exitX=1;exitY=0.5;exitDx=0;exitDy=0;" parent="1" source="X_LSW5ncMZYZCzvjUDPp-1" target="X_LSW5ncMZYZCzvjUDPp-19" edge="1">
          <mxGeometry width="50" height="50" relative="1" as="geometry">
            <mxPoint x="400" y="220" as="sourcePoint" />
            <mxPoint x="450" y="170" as="targetPoint" />
          </mxGeometry>
        </mxCell>
        <mxCell id="X_LSW5ncMZYZCzvjUDPp-29" value="&lt;u&gt;id&lt;/u&gt;" style="ellipse;whiteSpace=wrap;html=1;" parent="1" vertex="1">
          <mxGeometry x="405" y="350" width="50" height="20" as="geometry" />
        </mxCell>
        <mxCell id="X_LSW5ncMZYZCzvjUDPp-30" value="salário" style="ellipse;whiteSpace=wrap;html=1;" parent="1" vertex="1">
          <mxGeometry x="470" y="330" width="60" height="30" as="geometry" />
        </mxCell>
        <mxCell id="X_LSW5ncMZYZCzvjUDPp-32" value="sexo" style="ellipse;whiteSpace=wrap;html=1;" parent="1" vertex="1">
          <mxGeometry x="440" y="230" width="50" height="30" as="geometry" />
        </mxCell>
        <mxCell id="X_LSW5ncMZYZCzvjUDPp-33" value="" style="endArrow=none;html=1;rounded=0;entryX=0;entryY=0.75;entryDx=0;entryDy=0;exitX=1;exitY=0.5;exitDx=0;exitDy=0;" parent="1" source="X_LSW5ncMZYZCzvjUDPp-32" target="X_LSW5ncMZYZCzvjUDPp-1" edge="1">
          <mxGeometry width="50" height="50" relative="1" as="geometry">
            <mxPoint x="400" y="360" as="sourcePoint" />
            <mxPoint x="450" y="310" as="targetPoint" />
          </mxGeometry>
        </mxCell>
        <mxCell id="X_LSW5ncMZYZCzvjUDPp-34" value="" style="endArrow=none;html=1;rounded=0;entryX=0.5;entryY=1;entryDx=0;entryDy=0;exitX=0.5;exitY=0;exitDx=0;exitDy=0;" parent="1" source="X_LSW5ncMZYZCzvjUDPp-5" target="X_LSW5ncMZYZCzvjUDPp-30" edge="1">
          <mxGeometry width="50" height="50" relative="1" as="geometry">
            <mxPoint x="470" y="385" as="sourcePoint" />
            <mxPoint x="520" y="335" as="targetPoint" />
          </mxGeometry>
        </mxCell>
        <mxCell id="X_LSW5ncMZYZCzvjUDPp-35" value="" style="endArrow=none;html=1;rounded=0;entryX=0.5;entryY=1;entryDx=0;entryDy=0;exitX=0;exitY=0;exitDx=0;exitDy=0;" parent="1" source="X_LSW5ncMZYZCzvjUDPp-5" target="X_LSW5ncMZYZCzvjUDPp-29" edge="1">
          <mxGeometry width="50" height="50" relative="1" as="geometry">
            <mxPoint x="470" y="385" as="sourcePoint" />
            <mxPoint x="520" y="335" as="targetPoint" />
          </mxGeometry>
        </mxCell>
        <mxCell id="X_LSW5ncMZYZCzvjUDPp-36" value="data_registo" style="ellipse;whiteSpace=wrap;html=1;" parent="1" vertex="1">
          <mxGeometry x="780" y="255" width="70" height="40" as="geometry" />
        </mxCell>
        <mxCell id="X_LSW5ncMZYZCzvjUDPp-37" value="" style="endArrow=none;html=1;rounded=0;exitX=0.5;exitY=0;exitDx=0;exitDy=0;entryX=0.5;entryY=1;entryDx=0;entryDy=0;" parent="1" source="X_LSW5ncMZYZCzvjUDPp-3" target="X_LSW5ncMZYZCzvjUDPp-36" edge="1">
          <mxGeometry width="50" height="50" relative="1" as="geometry">
            <mxPoint x="600" y="360" as="sourcePoint" />
            <mxPoint x="810" y="300" as="targetPoint" />
          </mxGeometry>
        </mxCell>
        <mxCell id="X_LSW5ncMZYZCzvjUDPp-46" value="tipo" style="ellipse;whiteSpace=wrap;html=1;" parent="1" vertex="1">
          <mxGeometry x="545" y="355" width="50" height="30" as="geometry" />
        </mxCell>
        <mxCell id="X_LSW5ncMZYZCzvjUDPp-47" value="" style="endArrow=none;html=1;rounded=0;entryX=0;entryY=1;entryDx=0;entryDy=0;exitX=1;exitY=0.25;exitDx=0;exitDy=0;" parent="1" source="X_LSW5ncMZYZCzvjUDPp-5" target="X_LSW5ncMZYZCzvjUDPp-46" edge="1">
          <mxGeometry width="50" height="50" relative="1" as="geometry">
            <mxPoint x="530" y="455" as="sourcePoint" />
            <mxPoint x="580" y="405" as="targetPoint" />
          </mxGeometry>
        </mxCell>
        <mxCell id="X_LSW5ncMZYZCzvjUDPp-49" value="&lt;div&gt;&lt;br&gt;&lt;/div&gt;&lt;div&gt;IS-A&lt;/div&gt;" style="triangle;whiteSpace=wrap;html=1;direction=north;" parent="1" vertex="1">
          <mxGeometry x="470" y="435" width="50" height="40" as="geometry" />
        </mxCell>
        <mxCell id="X_LSW5ncMZYZCzvjUDPp-53" value="Part-Time" style="whiteSpace=wrap;html=1;" parent="1" vertex="1">
          <mxGeometry x="525" y="495" width="90" height="30" as="geometry" />
        </mxCell>
        <mxCell id="X_LSW5ncMZYZCzvjUDPp-55" value="" style="endArrow=none;html=1;rounded=0;entryX=0.032;entryY=0.98;entryDx=0;entryDy=0;entryPerimeter=0;exitX=0;exitY=0;exitDx=0;exitDy=0;" parent="1" source="X_LSW5ncMZYZCzvjUDPp-53" target="X_LSW5ncMZYZCzvjUDPp-49" edge="1">
          <mxGeometry width="50" height="50" relative="1" as="geometry">
            <mxPoint x="530" y="525" as="sourcePoint" />
            <mxPoint x="580" y="475" as="targetPoint" />
          </mxGeometry>
        </mxCell>
        <mxCell id="X_LSW5ncMZYZCzvjUDPp-56" value="horas_semanais" style="ellipse;whiteSpace=wrap;html=1;" parent="1" vertex="1">
          <mxGeometry x="570" y="435" width="100" height="50" as="geometry" />
        </mxCell>
        <mxCell id="X_LSW5ncMZYZCzvjUDPp-57" value="" style="endArrow=none;html=1;rounded=0;entryX=0;entryY=1;entryDx=0;entryDy=0;exitX=0.5;exitY=0;exitDx=0;exitDy=0;" parent="1" source="X_LSW5ncMZYZCzvjUDPp-53" target="X_LSW5ncMZYZCzvjUDPp-56" edge="1">
          <mxGeometry width="50" height="50" relative="1" as="geometry">
            <mxPoint x="530" y="525" as="sourcePoint" />
            <mxPoint x="580" y="475" as="targetPoint" />
          </mxGeometry>
        </mxCell>
        <mxCell id="X_LSW5ncMZYZCzvjUDPp-58" value="Diretor" style="whiteSpace=wrap;html=1;" parent="1" vertex="1">
          <mxGeometry x="140" y="295" width="90" height="30" as="geometry" />
        </mxCell>
        <mxCell id="X_LSW5ncMZYZCzvjUDPp-59" value="" style="endArrow=none;html=1;rounded=0;entryX=0.046;entryY=0.026;entryDx=0;entryDy=0;entryPerimeter=0;exitX=1;exitY=0.5;exitDx=0;exitDy=0;" parent="1" source="X_LSW5ncMZYZCzvjUDPp-58" target="X_LSW5ncMZYZCzvjUDPp-6" edge="1">
          <mxGeometry width="50" height="50" relative="1" as="geometry">
            <mxPoint x="420" y="360" as="sourcePoint" />
            <mxPoint x="470" y="310" as="targetPoint" />
          </mxGeometry>
        </mxCell>
        <mxCell id="X_LSW5ncMZYZCzvjUDPp-61" value="Dirige" style="shape=rhombus;perimeter=rhombusPerimeter;whiteSpace=wrap;html=1;align=center;" parent="1" vertex="1">
          <mxGeometry x="160" y="360" width="50" height="40" as="geometry" />
        </mxCell>
        <mxCell id="X_LSW5ncMZYZCzvjUDPp-62" value="" style="shape=link;html=1;rounded=0;entryX=0.5;entryY=1;entryDx=0;entryDy=0;exitX=0.5;exitY=0;exitDx=0;exitDy=0;" parent="1" source="X_LSW5ncMZYZCzvjUDPp-61" target="X_LSW5ncMZYZCzvjUDPp-58" edge="1">
          <mxGeometry width="100" relative="1" as="geometry">
            <mxPoint x="390" y="340" as="sourcePoint" />
            <mxPoint x="490" y="340" as="targetPoint" />
          </mxGeometry>
        </mxCell>
        <mxCell id="X_LSW5ncMZYZCzvjUDPp-63" value="" style="shape=link;html=1;rounded=0;exitX=0.5;exitY=1;exitDx=0;exitDy=0;entryX=0.5;entryY=0;entryDx=0;entryDy=0;" parent="1" source="X_LSW5ncMZYZCzvjUDPp-61" edge="1">
          <mxGeometry width="100" relative="1" as="geometry">
            <mxPoint x="390" y="340" as="sourcePoint" />
            <mxPoint x="185" y="429.9999999999999" as="targetPoint" />
          </mxGeometry>
        </mxCell>
        <mxCell id="X_LSW5ncMZYZCzvjUDPp-64" value="1" style="text;html=1;align=center;verticalAlign=middle;resizable=0;points=[];autosize=1;strokeColor=none;fillColor=none;" parent="1" vertex="1">
          <mxGeometry x="180" y="325" width="30" height="30" as="geometry" />
        </mxCell>
        <mxCell id="X_LSW5ncMZYZCzvjUDPp-65" value="N" style="text;html=1;align=center;verticalAlign=middle;resizable=0;points=[];autosize=1;strokeColor=none;fillColor=none;" parent="1" vertex="1">
          <mxGeometry x="180" y="400" width="30" height="30" as="geometry" />
        </mxCell>
        <mxCell id="X_LSW5ncMZYZCzvjUDPp-66" value="Loja" style="whiteSpace=wrap;html=1;" parent="1" vertex="1">
          <mxGeometry x="160" y="560" width="50" height="30" as="geometry" />
        </mxCell>
        <mxCell id="X_LSW5ncMZYZCzvjUDPp-67" value="Pertence" style="shape=rhombus;perimeter=rhombusPerimeter;whiteSpace=wrap;html=1;align=center;" parent="1" vertex="1">
          <mxGeometry x="150" y="485" width="70" height="50" as="geometry" />
        </mxCell>
        <mxCell id="X_LSW5ncMZYZCzvjUDPp-68" value="" style="endArrow=none;html=1;rounded=0;entryX=0.5;entryY=1;entryDx=0;entryDy=0;exitX=0.5;exitY=0;exitDx=0;exitDy=0;" parent="1" source="X_LSW5ncMZYZCzvjUDPp-67" edge="1">
          <mxGeometry width="50" height="50" relative="1" as="geometry">
            <mxPoint x="420" y="500" as="sourcePoint" />
            <mxPoint x="185" y="459.9999999999999" as="targetPoint" />
          </mxGeometry>
        </mxCell>
        <mxCell id="X_LSW5ncMZYZCzvjUDPp-69" value="" style="shape=link;html=1;rounded=0;entryX=0.5;entryY=0;entryDx=0;entryDy=0;exitX=0.5;exitY=1;exitDx=0;exitDy=0;" parent="1" source="X_LSW5ncMZYZCzvjUDPp-67" target="X_LSW5ncMZYZCzvjUDPp-66" edge="1">
          <mxGeometry width="100" relative="1" as="geometry">
            <mxPoint x="390" y="480" as="sourcePoint" />
            <mxPoint x="490" y="480" as="targetPoint" />
          </mxGeometry>
        </mxCell>
        <mxCell id="X_LSW5ncMZYZCzvjUDPp-70" value="N" style="text;html=1;align=center;verticalAlign=middle;resizable=0;points=[];autosize=1;strokeColor=none;fillColor=none;" parent="1" vertex="1">
          <mxGeometry x="180" y="530" width="30" height="30" as="geometry" />
        </mxCell>
        <mxCell id="X_LSW5ncMZYZCzvjUDPp-71" value="1" style="text;html=1;align=center;verticalAlign=middle;resizable=0;points=[];autosize=1;strokeColor=none;fillColor=none;" parent="1" vertex="1">
          <mxGeometry x="180" y="460" width="30" height="30" as="geometry" />
        </mxCell>
        <mxCell id="X_LSW5ncMZYZCzvjUDPp-76" value="Trabalha" style="rhombus;whiteSpace=wrap;html=1;" parent="1" vertex="1">
          <mxGeometry x="280" y="445" width="70" height="50" as="geometry" />
        </mxCell>
        <mxCell id="X_LSW5ncMZYZCzvjUDPp-78" value="" style="shape=link;html=1;rounded=0;entryX=0;entryY=1;entryDx=0;entryDy=0;exitX=1;exitY=0.25;exitDx=0;exitDy=0;" parent="1" source="X_LSW5ncMZYZCzvjUDPp-66" target="X_LSW5ncMZYZCzvjUDPp-76" edge="1">
          <mxGeometry width="100" relative="1" as="geometry">
            <mxPoint x="190" y="480" as="sourcePoint" />
            <mxPoint x="290" y="480" as="targetPoint" />
          </mxGeometry>
        </mxCell>
        <mxCell id="X_LSW5ncMZYZCzvjUDPp-79" value="" style="shape=link;html=1;rounded=0;entryX=0;entryY=0.75;entryDx=0;entryDy=0;exitX=1;exitY=0;exitDx=0;exitDy=0;" parent="1" source="X_LSW5ncMZYZCzvjUDPp-76" target="X_LSW5ncMZYZCzvjUDPp-5" edge="1">
          <mxGeometry width="100" relative="1" as="geometry">
            <mxPoint x="190" y="480" as="sourcePoint" />
            <mxPoint x="290" y="480" as="targetPoint" />
          </mxGeometry>
        </mxCell>
        <mxCell id="X_LSW5ncMZYZCzvjUDPp-80" value="1" style="text;html=1;align=center;verticalAlign=middle;resizable=0;points=[];autosize=1;strokeColor=none;fillColor=none;" parent="1" vertex="1">
          <mxGeometry x="200" y="535" width="30" height="30" as="geometry" />
        </mxCell>
        <mxCell id="X_LSW5ncMZYZCzvjUDPp-81" value="N" style="text;html=1;align=center;verticalAlign=middle;resizable=0;points=[];autosize=1;strokeColor=none;fillColor=none;" parent="1" vertex="1">
          <mxGeometry x="425" y="375" width="30" height="30" as="geometry" />
        </mxCell>
        <mxCell id="X_LSW5ncMZYZCzvjUDPp-84" value="morada" style="ellipse;whiteSpace=wrap;html=1;" parent="1" vertex="1">
          <mxGeometry x="120" y="635" width="60" height="30" as="geometry" />
        </mxCell>
        <mxCell id="X_LSW5ncMZYZCzvjUDPp-85" value="&lt;u&gt;telefone&lt;/u&gt;" style="ellipse;whiteSpace=wrap;html=1;" parent="1" vertex="1">
          <mxGeometry x="60" y="600" width="60" height="40" as="geometry" />
        </mxCell>
        <mxCell id="X_LSW5ncMZYZCzvjUDPp-86" value="&lt;u&gt;id&lt;/u&gt;" style="ellipse;whiteSpace=wrap;html=1;" parent="1" vertex="1">
          <mxGeometry x="200" y="635" width="50" height="30" as="geometry" />
        </mxCell>
        <mxCell id="X_LSW5ncMZYZCzvjUDPp-88" value="" style="endArrow=none;html=1;rounded=0;entryX=0;entryY=0.5;entryDx=0;entryDy=0;exitX=1;exitY=0.5;exitDx=0;exitDy=0;" parent="1" source="X_LSW5ncMZYZCzvjUDPp-85" target="X_LSW5ncMZYZCzvjUDPp-66" edge="1">
          <mxGeometry width="50" height="50" relative="1" as="geometry">
            <mxPoint x="210" y="640" as="sourcePoint" />
            <mxPoint x="260" y="590" as="targetPoint" />
          </mxGeometry>
        </mxCell>
        <mxCell id="X_LSW5ncMZYZCzvjUDPp-89" value="" style="endArrow=none;html=1;rounded=0;entryX=0;entryY=1;entryDx=0;entryDy=0;exitX=0.5;exitY=0;exitDx=0;exitDy=0;" parent="1" source="X_LSW5ncMZYZCzvjUDPp-84" target="X_LSW5ncMZYZCzvjUDPp-66" edge="1">
          <mxGeometry width="50" height="50" relative="1" as="geometry">
            <mxPoint x="210" y="640" as="sourcePoint" />
            <mxPoint x="260" y="590" as="targetPoint" />
          </mxGeometry>
        </mxCell>
        <mxCell id="X_LSW5ncMZYZCzvjUDPp-91" value="" style="endArrow=none;html=1;rounded=0;entryX=0.75;entryY=1;entryDx=0;entryDy=0;exitX=0.5;exitY=0;exitDx=0;exitDy=0;" parent="1" source="X_LSW5ncMZYZCzvjUDPp-86" target="X_LSW5ncMZYZCzvjUDPp-66" edge="1">
          <mxGeometry width="50" height="50" relative="1" as="geometry">
            <mxPoint x="210" y="640" as="sourcePoint" />
            <mxPoint x="260" y="590" as="targetPoint" />
          </mxGeometry>
        </mxCell>
        <mxCell id="X_LSW5ncMZYZCzvjUDPp-92" value="Gere" style="rhombus;whiteSpace=wrap;html=1;" parent="1" vertex="1">
          <mxGeometry x="280" y="530" width="50" height="40" as="geometry" />
        </mxCell>
        <mxCell id="X_LSW5ncMZYZCzvjUDPp-93" value="" style="endArrow=none;html=1;rounded=0;entryX=0.25;entryY=1;entryDx=0;entryDy=0;exitX=1;exitY=0;exitDx=0;exitDy=0;" parent="1" source="X_LSW5ncMZYZCzvjUDPp-92" target="X_LSW5ncMZYZCzvjUDPp-5" edge="1">
          <mxGeometry width="50" height="50" relative="1" as="geometry">
            <mxPoint x="210" y="570" as="sourcePoint" />
            <mxPoint x="375" y="525" as="targetPoint" />
          </mxGeometry>
        </mxCell>
        <mxCell id="X_LSW5ncMZYZCzvjUDPp-95" value="1" style="text;html=1;align=center;verticalAlign=middle;resizable=0;points=[];autosize=1;strokeColor=none;fillColor=none;" parent="1" vertex="1">
          <mxGeometry x="450" y="410" width="30" height="30" as="geometry" />
        </mxCell>
        <mxCell id="X_LSW5ncMZYZCzvjUDPp-96" value="1" style="text;html=1;align=center;verticalAlign=middle;resizable=0;points=[];autosize=1;strokeColor=none;fillColor=none;" parent="1" vertex="1">
          <mxGeometry x="220" y="565" width="30" height="30" as="geometry" />
        </mxCell>
        <mxCell id="48F-PradtiKEYy1KKiI4-1" value="Efetivo" style="whiteSpace=wrap;html=1;" parent="1" vertex="1">
          <mxGeometry x="390" y="495" width="80" height="30" as="geometry" />
        </mxCell>
        <mxCell id="48F-PradtiKEYy1KKiI4-2" value="" style="endArrow=none;html=1;rounded=0;entryX=0.029;entryY=-0.009;entryDx=0;entryDy=0;entryPerimeter=0;exitX=0.75;exitY=0;exitDx=0;exitDy=0;" parent="1" source="48F-PradtiKEYy1KKiI4-1" target="X_LSW5ncMZYZCzvjUDPp-49" edge="1">
          <mxGeometry width="50" height="50" relative="1" as="geometry">
            <mxPoint x="400" y="560" as="sourcePoint" />
            <mxPoint x="450" y="510" as="targetPoint" />
          </mxGeometry>
        </mxCell>
        <mxCell id="48F-PradtiKEYy1KKiI4-3" value="disjoint" style="text;html=1;align=center;verticalAlign=middle;resizable=0;points=[];autosize=1;strokeColor=none;fillColor=none;" parent="1" vertex="1">
          <mxGeometry x="510" y="440" width="60" height="30" as="geometry" />
        </mxCell>
        <mxCell id="48F-PradtiKEYy1KKiI4-4" value="" style="shape=link;html=1;rounded=0;entryX=0.5;entryY=1;entryDx=0;entryDy=0;exitX=1;exitY=0.5;exitDx=0;exitDy=0;" parent="1" source="X_LSW5ncMZYZCzvjUDPp-49" target="X_LSW5ncMZYZCzvjUDPp-5" edge="1">
          <mxGeometry width="100" relative="1" as="geometry">
            <mxPoint x="370" y="520" as="sourcePoint" />
            <mxPoint x="470" y="520" as="targetPoint" />
          </mxGeometry>
        </mxCell>
        <mxCell id="48F-PradtiKEYy1KKiI4-5" value="Precisa" style="rhombus;whiteSpace=wrap;html=1;" parent="1" vertex="1">
          <mxGeometry x="395" y="560" width="70" height="50" as="geometry" />
        </mxCell>
        <mxCell id="48F-PradtiKEYy1KKiI4-6" value="Contrato" style="whiteSpace=wrap;html=1;" parent="1" vertex="1">
          <mxGeometry x="385" y="650" width="90" height="30" as="geometry" />
        </mxCell>
        <mxCell id="48F-PradtiKEYy1KKiI4-7" value="&lt;u&gt;id&lt;/u&gt;" style="ellipse;whiteSpace=wrap;html=1;" parent="1" vertex="1">
          <mxGeometry x="300" y="650" width="50" height="30" as="geometry" />
        </mxCell>
        <mxCell id="48F-PradtiKEYy1KKiI4-8" value="data_inicio" style="ellipse;whiteSpace=wrap;html=1;" parent="1" vertex="1">
          <mxGeometry x="305" y="690" width="90" height="40" as="geometry" />
        </mxCell>
        <mxCell id="48F-PradtiKEYy1KKiI4-9" value="data_fim" style="ellipse;whiteSpace=wrap;html=1;" parent="1" vertex="1">
          <mxGeometry x="440" y="700" width="80" height="40" as="geometry" />
        </mxCell>
        <mxCell id="48F-PradtiKEYy1KKiI4-10" value="" style="endArrow=none;html=1;rounded=0;entryX=0.5;entryY=0;entryDx=0;entryDy=0;exitX=0.75;exitY=1;exitDx=0;exitDy=0;" parent="1" source="48F-PradtiKEYy1KKiI4-6" target="48F-PradtiKEYy1KKiI4-9" edge="1">
          <mxGeometry width="50" height="50" relative="1" as="geometry">
            <mxPoint x="400" y="670" as="sourcePoint" />
            <mxPoint x="450" y="620" as="targetPoint" />
          </mxGeometry>
        </mxCell>
        <mxCell id="48F-PradtiKEYy1KKiI4-11" value="" style="endArrow=none;html=1;rounded=0;entryX=0.25;entryY=1;entryDx=0;entryDy=0;exitX=1;exitY=0;exitDx=0;exitDy=0;" parent="1" source="48F-PradtiKEYy1KKiI4-8" target="48F-PradtiKEYy1KKiI4-6" edge="1">
          <mxGeometry width="50" height="50" relative="1" as="geometry">
            <mxPoint x="400" y="670" as="sourcePoint" />
            <mxPoint x="450" y="620" as="targetPoint" />
          </mxGeometry>
        </mxCell>
        <mxCell id="48F-PradtiKEYy1KKiI4-12" value="" style="endArrow=none;html=1;rounded=0;exitX=1;exitY=0.5;exitDx=0;exitDy=0;entryX=0;entryY=0.5;entryDx=0;entryDy=0;" parent="1" source="48F-PradtiKEYy1KKiI4-7" target="48F-PradtiKEYy1KKiI4-6" edge="1">
          <mxGeometry width="50" height="50" relative="1" as="geometry">
            <mxPoint x="400" y="670" as="sourcePoint" />
            <mxPoint x="450" y="620" as="targetPoint" />
          </mxGeometry>
        </mxCell>
        <mxCell id="48F-PradtiKEYy1KKiI4-14" value="" style="shape=link;html=1;rounded=0;entryX=0.5;entryY=1;entryDx=0;entryDy=0;exitX=0.5;exitY=0;exitDx=0;exitDy=0;" parent="1" source="48F-PradtiKEYy1KKiI4-5" target="48F-PradtiKEYy1KKiI4-1" edge="1">
          <mxGeometry width="100" relative="1" as="geometry">
            <mxPoint x="370" y="650" as="sourcePoint" />
            <mxPoint x="470" y="650" as="targetPoint" />
          </mxGeometry>
        </mxCell>
        <mxCell id="48F-PradtiKEYy1KKiI4-16" value="1" style="text;html=1;align=center;verticalAlign=middle;resizable=0;points=[];autosize=1;strokeColor=none;fillColor=none;" parent="1" vertex="1">
          <mxGeometry x="425" y="525" width="30" height="30" as="geometry" />
        </mxCell>
        <mxCell id="48F-PradtiKEYy1KKiI4-17" value="1" style="text;html=1;align=center;verticalAlign=middle;resizable=0;points=[];autosize=1;strokeColor=none;fillColor=none;" parent="1" vertex="1">
          <mxGeometry x="425" y="620" width="30" height="30" as="geometry" />
        </mxCell>
        <mxCell id="48F-PradtiKEYy1KKiI4-18" value="" style="shape=link;html=1;rounded=0;entryX=0.5;entryY=1;entryDx=0;entryDy=0;exitX=0.5;exitY=0;exitDx=0;exitDy=0;" parent="1" source="48F-PradtiKEYy1KKiI4-6" target="48F-PradtiKEYy1KKiI4-5" edge="1">
          <mxGeometry width="100" relative="1" as="geometry">
            <mxPoint x="370" y="650" as="sourcePoint" />
            <mxPoint x="470" y="650" as="targetPoint" />
          </mxGeometry>
        </mxCell>
        <mxCell id="48F-PradtiKEYy1KKiI4-21" value="salário" style="ellipse;whiteSpace=wrap;html=1;" parent="1" vertex="1">
          <mxGeometry x="155" y="240" width="60" height="40" as="geometry" />
        </mxCell>
        <mxCell id="48F-PradtiKEYy1KKiI4-22" value="" style="endArrow=none;html=1;rounded=0;entryX=0.5;entryY=1;entryDx=0;entryDy=0;exitX=0.5;exitY=0;exitDx=0;exitDy=0;" parent="1" source="X_LSW5ncMZYZCzvjUDPp-58" target="48F-PradtiKEYy1KKiI4-21" edge="1">
          <mxGeometry width="50" height="50" relative="1" as="geometry">
            <mxPoint x="400" y="520" as="sourcePoint" />
            <mxPoint x="450" y="470" as="targetPoint" />
          </mxGeometry>
        </mxCell>
        <mxCell id="IxO6dU_HPFh1SA8IVn4u-3" value="" style="shape=link;html=1;rounded=0;entryX=0;entryY=0.5;entryDx=0;entryDy=0;exitX=1;exitY=0.5;exitDx=0;exitDy=0;" parent="1" source="X_LSW5ncMZYZCzvjUDPp-66" target="X_LSW5ncMZYZCzvjUDPp-92" edge="1">
          <mxGeometry width="100" relative="1" as="geometry">
            <mxPoint x="370" y="530" as="sourcePoint" />
            <mxPoint x="470" y="530" as="targetPoint" />
          </mxGeometry>
        </mxCell>
        <mxCell id="IxO6dU_HPFh1SA8IVn4u-4" value="Emite" style="shape=rhombus;double=1;perimeter=rhombusPerimeter;whiteSpace=wrap;html=1;align=center;" parent="1" vertex="1">
          <mxGeometry x="595" y="375" width="80" height="50" as="geometry" />
        </mxCell>
        <mxCell id="IxO6dU_HPFh1SA8IVn4u-5" value="" style="endArrow=none;html=1;rounded=0;entryX=0;entryY=0.5;entryDx=0;entryDy=0;exitX=1;exitY=0.75;exitDx=0;exitDy=0;" parent="1" source="X_LSW5ncMZYZCzvjUDPp-5" target="IxO6dU_HPFh1SA8IVn4u-4" edge="1">
          <mxGeometry width="50" height="50" relative="1" as="geometry">
            <mxPoint x="400" y="450" as="sourcePoint" />
            <mxPoint x="450" y="400" as="targetPoint" />
          </mxGeometry>
        </mxCell>
        <mxCell id="IxO6dU_HPFh1SA8IVn4u-7" value="Fatura" style="shape=ext;margin=3;double=1;whiteSpace=wrap;html=1;align=center;" parent="1" vertex="1">
          <mxGeometry x="770" y="510" width="90" height="40" as="geometry" />
        </mxCell>
        <mxCell id="IxO6dU_HPFh1SA8IVn4u-8" value="" style="shape=link;html=1;rounded=0;entryX=0;entryY=0;entryDx=0;entryDy=0;exitX=1;exitY=1;exitDx=0;exitDy=0;" parent="1" source="IxO6dU_HPFh1SA8IVn4u-4" target="IxO6dU_HPFh1SA8IVn4u-7" edge="1">
          <mxGeometry width="100" relative="1" as="geometry">
            <mxPoint x="370" y="430" as="sourcePoint" />
            <mxPoint x="470" y="430" as="targetPoint" />
          </mxGeometry>
        </mxCell>
        <mxCell id="IxO6dU_HPFh1SA8IVn4u-10" value="" style="endArrow=none;html=1;rounded=0;entryX=0.5;entryY=1;entryDx=0;entryDy=0;exitX=0.5;exitY=0;exitDx=0;exitDy=0;" parent="1" target="X_LSW5ncMZYZCzvjUDPp-3" edge="1">
          <mxGeometry width="50" height="50" relative="1" as="geometry">
            <mxPoint x="815" y="385" as="sourcePoint" />
            <mxPoint x="450" y="400" as="targetPoint" />
          </mxGeometry>
        </mxCell>
        <mxCell id="IxO6dU_HPFh1SA8IVn4u-11" value="" style="shape=link;html=1;rounded=0;entryX=0.5;entryY=1;entryDx=0;entryDy=0;exitX=0.5;exitY=0;exitDx=0;exitDy=0;" parent="1" source="IxO6dU_HPFh1SA8IVn4u-7" edge="1">
          <mxGeometry width="100" relative="1" as="geometry">
            <mxPoint x="370" y="430" as="sourcePoint" />
            <mxPoint x="815" y="445" as="targetPoint" />
          </mxGeometry>
        </mxCell>
        <mxCell id="IxO6dU_HPFh1SA8IVn4u-12" value="1" style="text;html=1;align=center;verticalAlign=middle;resizable=0;points=[];autosize=1;strokeColor=none;fillColor=none;" parent="1" vertex="1">
          <mxGeometry x="535" y="395" width="30" height="30" as="geometry" />
        </mxCell>
        <mxCell id="IxO6dU_HPFh1SA8IVn4u-13" value="N" style="text;html=1;align=center;verticalAlign=middle;resizable=0;points=[];autosize=1;strokeColor=none;fillColor=none;" parent="1" vertex="1">
          <mxGeometry x="740" y="505" width="30" height="30" as="geometry" />
        </mxCell>
        <mxCell id="IxO6dU_HPFh1SA8IVn4u-14" value="N" style="text;html=1;align=center;verticalAlign=middle;resizable=0;points=[];autosize=1;strokeColor=none;fillColor=none;" parent="1" vertex="1">
          <mxGeometry x="785" y="485" width="30" height="30" as="geometry" />
        </mxCell>
        <mxCell id="IxO6dU_HPFh1SA8IVn4u-15" value="1" style="text;html=1;align=center;verticalAlign=middle;resizable=0;points=[];autosize=1;strokeColor=none;fillColor=none;" parent="1" vertex="1">
          <mxGeometry x="780" y="365" width="30" height="30" as="geometry" />
        </mxCell>
        <mxCell id="IxO6dU_HPFh1SA8IVn4u-16" value="&lt;u&gt;referência&lt;/u&gt;" style="ellipse;whiteSpace=wrap;html=1;" parent="1" vertex="1">
          <mxGeometry x="730" y="580" width="70" height="50" as="geometry" />
        </mxCell>
        <mxCell id="IxO6dU_HPFh1SA8IVn4u-17" value="" style="endArrow=none;html=1;rounded=0;entryX=0;entryY=1;entryDx=0;entryDy=0;exitX=0.5;exitY=0;exitDx=0;exitDy=0;" parent="1" source="IxO6dU_HPFh1SA8IVn4u-16" target="IxO6dU_HPFh1SA8IVn4u-7" edge="1">
          <mxGeometry width="50" height="50" relative="1" as="geometry">
            <mxPoint x="400" y="450" as="sourcePoint" />
            <mxPoint x="450" y="400" as="targetPoint" />
          </mxGeometry>
        </mxCell>
        <mxCell id="IxO6dU_HPFh1SA8IVn4u-18" value="data_emissao" style="ellipse;whiteSpace=wrap;html=1;" parent="1" vertex="1">
          <mxGeometry x="815" y="575" width="90" height="60" as="geometry" />
        </mxCell>
        <mxCell id="IxO6dU_HPFh1SA8IVn4u-20" value="" style="endArrow=none;html=1;rounded=0;entryX=0.5;entryY=0;entryDx=0;entryDy=0;exitX=0.75;exitY=1;exitDx=0;exitDy=0;" parent="1" source="IxO6dU_HPFh1SA8IVn4u-7" target="IxO6dU_HPFh1SA8IVn4u-18" edge="1">
          <mxGeometry width="50" height="50" relative="1" as="geometry">
            <mxPoint x="400" y="450" as="sourcePoint" />
            <mxPoint x="450" y="400" as="targetPoint" />
          </mxGeometry>
        </mxCell>
        <mxCell id="IxO6dU_HPFh1SA8IVn4u-23" value="rua" style="ellipse;whiteSpace=wrap;html=1;" parent="1" vertex="1">
          <mxGeometry x="470" y="95" width="60" height="30" as="geometry" />
        </mxCell>
        <mxCell id="IxO6dU_HPFh1SA8IVn4u-25" value="cod_postal" style="ellipse;whiteSpace=wrap;html=1;" parent="1" vertex="1">
          <mxGeometry x="530" y="60" width="80" height="40" as="geometry" />
        </mxCell>
        <mxCell id="IxO6dU_HPFh1SA8IVn4u-26" value="localidade" style="ellipse;whiteSpace=wrap;html=1;" parent="1" vertex="1">
          <mxGeometry x="615" y="90" width="70" height="40" as="geometry" />
        </mxCell>
        <mxCell id="IxO6dU_HPFh1SA8IVn4u-27" value="rua" style="ellipse;whiteSpace=wrap;html=1;" parent="1" vertex="1">
          <mxGeometry x="10" y="665" width="60" height="30" as="geometry" />
        </mxCell>
        <mxCell id="IxO6dU_HPFh1SA8IVn4u-28" value="cod_postal" style="ellipse;whiteSpace=wrap;html=1;" parent="1" vertex="1">
          <mxGeometry x="55" y="690" width="80" height="40" as="geometry" />
        </mxCell>
        <mxCell id="IxO6dU_HPFh1SA8IVn4u-29" value="localidade" style="ellipse;whiteSpace=wrap;html=1;" parent="1" vertex="1">
          <mxGeometry x="145" y="690" width="70" height="40" as="geometry" />
        </mxCell>
        <mxCell id="IxO6dU_HPFh1SA8IVn4u-30" value="" style="endArrow=none;html=1;rounded=0;entryX=0;entryY=1;entryDx=0;entryDy=0;exitX=1;exitY=0;exitDx=0;exitDy=0;" parent="1" source="X_LSW5ncMZYZCzvjUDPp-17" target="IxO6dU_HPFh1SA8IVn4u-26" edge="1">
          <mxGeometry width="50" height="50" relative="1" as="geometry">
            <mxPoint x="400" y="230" as="sourcePoint" />
            <mxPoint x="450" y="180" as="targetPoint" />
          </mxGeometry>
        </mxCell>
        <mxCell id="IxO6dU_HPFh1SA8IVn4u-31" value="" style="endArrow=none;html=1;rounded=0;entryX=0.5;entryY=1;entryDx=0;entryDy=0;exitX=0.5;exitY=0;exitDx=0;exitDy=0;" parent="1" source="X_LSW5ncMZYZCzvjUDPp-17" target="IxO6dU_HPFh1SA8IVn4u-25" edge="1">
          <mxGeometry width="50" height="50" relative="1" as="geometry">
            <mxPoint x="400" y="230" as="sourcePoint" />
            <mxPoint x="450" y="180" as="targetPoint" />
          </mxGeometry>
        </mxCell>
        <mxCell id="IxO6dU_HPFh1SA8IVn4u-32" value="" style="endArrow=none;html=1;rounded=0;entryX=0;entryY=0;entryDx=0;entryDy=0;exitX=1;exitY=1;exitDx=0;exitDy=0;" parent="1" source="IxO6dU_HPFh1SA8IVn4u-23" target="X_LSW5ncMZYZCzvjUDPp-17" edge="1">
          <mxGeometry width="50" height="50" relative="1" as="geometry">
            <mxPoint x="400" y="230" as="sourcePoint" />
            <mxPoint x="450" y="180" as="targetPoint" />
          </mxGeometry>
        </mxCell>
        <mxCell id="IxO6dU_HPFh1SA8IVn4u-33" value="" style="endArrow=none;html=1;rounded=0;exitX=0.5;exitY=0;exitDx=0;exitDy=0;entryX=0.5;entryY=1;entryDx=0;entryDy=0;" parent="1" source="IxO6dU_HPFh1SA8IVn4u-29" target="X_LSW5ncMZYZCzvjUDPp-84" edge="1">
          <mxGeometry width="50" height="50" relative="1" as="geometry">
            <mxPoint x="400" y="640" as="sourcePoint" />
            <mxPoint x="450" y="590" as="targetPoint" />
          </mxGeometry>
        </mxCell>
        <mxCell id="IxO6dU_HPFh1SA8IVn4u-34" value="" style="endArrow=none;html=1;rounded=0;exitX=1;exitY=0;exitDx=0;exitDy=0;entryX=0;entryY=1;entryDx=0;entryDy=0;" parent="1" source="IxO6dU_HPFh1SA8IVn4u-28" target="X_LSW5ncMZYZCzvjUDPp-84" edge="1">
          <mxGeometry width="50" height="50" relative="1" as="geometry">
            <mxPoint x="400" y="640" as="sourcePoint" />
            <mxPoint x="450" y="590" as="targetPoint" />
          </mxGeometry>
        </mxCell>
        <mxCell id="IxO6dU_HPFh1SA8IVn4u-35" value="" style="endArrow=none;html=1;rounded=0;exitX=1;exitY=0.5;exitDx=0;exitDy=0;entryX=0;entryY=0.5;entryDx=0;entryDy=0;" parent="1" source="IxO6dU_HPFh1SA8IVn4u-27" target="X_LSW5ncMZYZCzvjUDPp-84" edge="1">
          <mxGeometry width="50" height="50" relative="1" as="geometry">
            <mxPoint x="400" y="640" as="sourcePoint" />
            <mxPoint x="450" y="590" as="targetPoint" />
          </mxGeometry>
        </mxCell>
        <mxCell id="IxO6dU_HPFh1SA8IVn4u-36" value="Produto" style="whiteSpace=wrap;html=1;" parent="1" vertex="1">
          <mxGeometry x="-125" y="558" width="100" height="30" as="geometry" />
        </mxCell>
        <mxCell id="IxO6dU_HPFh1SA8IVn4u-37" value="Fornecedor" style="whiteSpace=wrap;html=1;" parent="1" vertex="1">
          <mxGeometry x="-360" y="428" width="90" height="30" as="geometry" />
        </mxCell>
        <mxCell id="IxO6dU_HPFh1SA8IVn4u-38" value="Patente" style="whiteSpace=wrap;html=1;" parent="1" vertex="1">
          <mxGeometry x="-60" y="295" width="100" height="30" as="geometry" />
        </mxCell>
        <mxCell id="IxO6dU_HPFh1SA8IVn4u-39" style="edgeStyle=orthogonalEdgeStyle;rounded=0;orthogonalLoop=1;jettySize=auto;html=1;exitX=0.5;exitY=1;exitDx=0;exitDy=0;" parent="1" source="IxO6dU_HPFh1SA8IVn4u-38" target="IxO6dU_HPFh1SA8IVn4u-38" edge="1">
          <mxGeometry relative="1" as="geometry" />
        </mxCell>
        <mxCell id="IxO6dU_HPFh1SA8IVn4u-43" value="Identifica" style="shape=rhombus;double=1;perimeter=rhombusPerimeter;whiteSpace=wrap;html=1;align=center;" parent="1" vertex="1">
          <mxGeometry x="-50" y="345" width="80" height="65" as="geometry" />
        </mxCell>
        <mxCell id="IxO6dU_HPFh1SA8IVn4u-45" value="" style="shape=link;html=1;rounded=0;entryX=0.5;entryY=0;entryDx=0;entryDy=0;exitX=0.5;exitY=1;exitDx=0;exitDy=0;" parent="1" source="IxO6dU_HPFh1SA8IVn4u-38" target="IxO6dU_HPFh1SA8IVn4u-43" edge="1">
          <mxGeometry width="100" relative="1" as="geometry">
            <mxPoint x="70" y="430" as="sourcePoint" />
            <mxPoint x="170" y="430" as="targetPoint" />
          </mxGeometry>
        </mxCell>
        <mxCell id="IxO6dU_HPFh1SA8IVn4u-47" value="1" style="text;html=1;align=center;verticalAlign=middle;resizable=0;points=[];autosize=1;strokeColor=none;fillColor=none;" parent="1" vertex="1">
          <mxGeometry x="-40" y="325" width="30" height="30" as="geometry" />
        </mxCell>
        <mxCell id="IxO6dU_HPFh1SA8IVn4u-48" value="logo" style="ellipse;whiteSpace=wrap;html=1;" parent="1" vertex="1">
          <mxGeometry x="-25" y="212" width="50" height="30" as="geometry" />
        </mxCell>
        <mxCell id="IxO6dU_HPFh1SA8IVn4u-51" value="data_registo" style="ellipse;whiteSpace=wrap;html=1;" parent="1" vertex="1">
          <mxGeometry x="30" y="220" width="70" height="40" as="geometry" />
        </mxCell>
        <mxCell id="IxO6dU_HPFh1SA8IVn4u-52" value="data_venc" style="ellipse;whiteSpace=wrap;html=1;" parent="1" vertex="1">
          <mxGeometry x="45" y="260" width="80" height="40" as="geometry" />
        </mxCell>
        <mxCell id="IxO6dU_HPFh1SA8IVn4u-54" value="&lt;u&gt;id&lt;/u&gt;" style="ellipse;whiteSpace=wrap;html=1;" parent="1" vertex="1">
          <mxGeometry x="-110" y="220" width="60" height="30" as="geometry" />
        </mxCell>
        <mxCell id="IxO6dU_HPFh1SA8IVn4u-58" value="territórios" style="ellipse;shape=doubleEllipse;margin=3;whiteSpace=wrap;html=1;align=center;" parent="1" vertex="1">
          <mxGeometry x="-165" y="262" width="80" height="38" as="geometry" />
        </mxCell>
        <mxCell id="IxO6dU_HPFh1SA8IVn4u-59" value="" style="endArrow=none;html=1;rounded=0;entryX=0;entryY=1;entryDx=0;entryDy=0;exitX=1;exitY=0.5;exitDx=0;exitDy=0;" parent="1" source="IxO6dU_HPFh1SA8IVn4u-38" target="IxO6dU_HPFh1SA8IVn4u-52" edge="1">
          <mxGeometry width="50" height="50" relative="1" as="geometry">
            <mxPoint x="40" y="295" as="sourcePoint" />
            <mxPoint x="140" y="320" as="targetPoint" />
          </mxGeometry>
        </mxCell>
        <mxCell id="IxO6dU_HPFh1SA8IVn4u-60" value="" style="endArrow=none;html=1;rounded=0;entryX=0;entryY=1;entryDx=0;entryDy=0;exitX=0.704;exitY=0.025;exitDx=0;exitDy=0;exitPerimeter=0;" parent="1" source="IxO6dU_HPFh1SA8IVn4u-38" target="IxO6dU_HPFh1SA8IVn4u-51" edge="1">
          <mxGeometry width="50" height="50" relative="1" as="geometry">
            <mxPoint x="90" y="370" as="sourcePoint" />
            <mxPoint x="140" y="320" as="targetPoint" />
          </mxGeometry>
        </mxCell>
        <mxCell id="IxO6dU_HPFh1SA8IVn4u-61" value="" style="endArrow=none;html=1;rounded=0;entryX=0.5;entryY=1;entryDx=0;entryDy=0;exitX=0.5;exitY=0;exitDx=0;exitDy=0;" parent="1" source="IxO6dU_HPFh1SA8IVn4u-38" target="IxO6dU_HPFh1SA8IVn4u-48" edge="1">
          <mxGeometry width="50" height="50" relative="1" as="geometry">
            <mxPoint x="90" y="370" as="sourcePoint" />
            <mxPoint x="140" y="320" as="targetPoint" />
          </mxGeometry>
        </mxCell>
        <mxCell id="IxO6dU_HPFh1SA8IVn4u-62" value="" style="endArrow=none;html=1;rounded=0;entryX=1;entryY=1;entryDx=0;entryDy=0;exitX=0.25;exitY=0;exitDx=0;exitDy=0;" parent="1" source="IxO6dU_HPFh1SA8IVn4u-38" target="IxO6dU_HPFh1SA8IVn4u-54" edge="1">
          <mxGeometry width="50" height="50" relative="1" as="geometry">
            <mxPoint x="90" y="370" as="sourcePoint" />
            <mxPoint x="140" y="320" as="targetPoint" />
          </mxGeometry>
        </mxCell>
        <mxCell id="IxO6dU_HPFh1SA8IVn4u-63" value="" style="endArrow=none;html=1;rounded=0;entryX=1;entryY=1;entryDx=0;entryDy=0;exitX=0;exitY=0.25;exitDx=0;exitDy=0;" parent="1" source="IxO6dU_HPFh1SA8IVn4u-38" target="IxO6dU_HPFh1SA8IVn4u-58" edge="1">
          <mxGeometry width="50" height="50" relative="1" as="geometry">
            <mxPoint x="90" y="370" as="sourcePoint" />
            <mxPoint x="140" y="320" as="targetPoint" />
          </mxGeometry>
        </mxCell>
        <mxCell id="IxO6dU_HPFh1SA8IVn4u-66" value="Tem" style="rhombus;whiteSpace=wrap;html=1;" parent="1" vertex="1">
          <mxGeometry x="20" y="548" width="70" height="50" as="geometry" />
        </mxCell>
        <mxCell id="IxO6dU_HPFh1SA8IVn4u-70" value="" style="endArrow=none;html=1;rounded=0;entryX=0;entryY=0.5;entryDx=0;entryDy=0;exitX=1;exitY=0.5;exitDx=0;exitDy=0;" parent="1" source="IxO6dU_HPFh1SA8IVn4u-66" target="X_LSW5ncMZYZCzvjUDPp-66" edge="1">
          <mxGeometry width="50" height="50" relative="1" as="geometry">
            <mxPoint x="40" y="550" as="sourcePoint" />
            <mxPoint x="90" y="500" as="targetPoint" />
          </mxGeometry>
        </mxCell>
        <mxCell id="IxO6dU_HPFh1SA8IVn4u-71" value="" style="endArrow=none;html=1;rounded=0;entryX=1;entryY=0.5;entryDx=0;entryDy=0;exitX=0;exitY=0.5;exitDx=0;exitDy=0;" parent="1" source="IxO6dU_HPFh1SA8IVn4u-66" target="IxO6dU_HPFh1SA8IVn4u-36" edge="1">
          <mxGeometry width="50" height="50" relative="1" as="geometry">
            <mxPoint x="40" y="550" as="sourcePoint" />
            <mxPoint x="90" y="500" as="targetPoint" />
          </mxGeometry>
        </mxCell>
        <mxCell id="IxO6dU_HPFh1SA8IVn4u-72" value="N" style="text;html=1;align=center;verticalAlign=middle;resizable=0;points=[];autosize=1;strokeColor=none;fillColor=none;" parent="1" vertex="1">
          <mxGeometry x="125" y="548" width="30" height="30" as="geometry" />
        </mxCell>
        <mxCell id="IxO6dU_HPFh1SA8IVn4u-73" value="M" style="text;html=1;align=center;verticalAlign=middle;resizable=0;points=[];autosize=1;strokeColor=none;fillColor=none;" parent="1" vertex="1">
          <mxGeometry x="-30" y="570" width="30" height="30" as="geometry" />
        </mxCell>
        <mxCell id="IxO6dU_HPFh1SA8IVn4u-74" value="quantidade" style="ellipse;whiteSpace=wrap;html=1;" parent="1" vertex="1">
          <mxGeometry x="20" y="493" width="70" height="40" as="geometry" />
        </mxCell>
        <mxCell id="IxO6dU_HPFh1SA8IVn4u-75" value="" style="endArrow=none;html=1;rounded=0;entryX=0.5;entryY=1;entryDx=0;entryDy=0;exitX=0.5;exitY=0;exitDx=0;exitDy=0;" parent="1" source="IxO6dU_HPFh1SA8IVn4u-66" target="IxO6dU_HPFh1SA8IVn4u-74" edge="1">
          <mxGeometry width="50" height="50" relative="1" as="geometry">
            <mxPoint x="40" y="550" as="sourcePoint" />
            <mxPoint x="90" y="500" as="targetPoint" />
          </mxGeometry>
        </mxCell>
        <mxCell id="IxO6dU_HPFh1SA8IVn4u-76" value="Marca" style="shape=ext;margin=3;double=1;whiteSpace=wrap;html=1;align=center;" parent="1" vertex="1">
          <mxGeometry x="-125" y="425" width="100" height="40" as="geometry" />
        </mxCell>
        <mxCell id="IxO6dU_HPFh1SA8IVn4u-79" value="" style="shape=link;html=1;rounded=0;entryX=0;entryY=1;entryDx=0;entryDy=0;exitX=0.75;exitY=0;exitDx=0;exitDy=0;" parent="1" source="IxO6dU_HPFh1SA8IVn4u-76" target="IxO6dU_HPFh1SA8IVn4u-43" edge="1">
          <mxGeometry width="100" relative="1" as="geometry">
            <mxPoint x="20" y="530" as="sourcePoint" />
            <mxPoint x="-60" y="398.75" as="targetPoint" />
          </mxGeometry>
        </mxCell>
        <mxCell id="IxO6dU_HPFh1SA8IVn4u-80" value="1" style="text;html=1;align=center;verticalAlign=middle;resizable=0;points=[];autosize=1;strokeColor=none;fillColor=none;" parent="1" vertex="1">
          <mxGeometry x="-75" y="397.5" width="30" height="30" as="geometry" />
        </mxCell>
        <mxCell id="IxO6dU_HPFh1SA8IVn4u-82" value="Pertence" style="rhombus;whiteSpace=wrap;html=1;" parent="1" vertex="1">
          <mxGeometry x="-110" y="480" width="70" height="60" as="geometry" />
        </mxCell>
        <mxCell id="IxO6dU_HPFh1SA8IVn4u-83" value="" style="shape=link;html=1;rounded=0;entryX=0.5;entryY=1;entryDx=0;entryDy=0;exitX=0.5;exitY=0;exitDx=0;exitDy=0;" parent="1" source="IxO6dU_HPFh1SA8IVn4u-36" target="IxO6dU_HPFh1SA8IVn4u-82" edge="1">
          <mxGeometry width="100" relative="1" as="geometry">
            <mxPoint x="20" y="530" as="sourcePoint" />
            <mxPoint x="120" y="530" as="targetPoint" />
          </mxGeometry>
        </mxCell>
        <mxCell id="IxO6dU_HPFh1SA8IVn4u-84" value="" style="endArrow=none;html=1;rounded=0;entryX=0.5;entryY=1;entryDx=0;entryDy=0;exitX=0.5;exitY=0;exitDx=0;exitDy=0;" parent="1" source="IxO6dU_HPFh1SA8IVn4u-82" target="IxO6dU_HPFh1SA8IVn4u-76" edge="1">
          <mxGeometry width="50" height="50" relative="1" as="geometry">
            <mxPoint x="40" y="550" as="sourcePoint" />
            <mxPoint x="90" y="500" as="targetPoint" />
          </mxGeometry>
        </mxCell>
        <mxCell id="IxO6dU_HPFh1SA8IVn4u-85" value="1" style="text;html=1;align=center;verticalAlign=middle;resizable=0;points=[];autosize=1;strokeColor=none;fillColor=none;" parent="1" vertex="1">
          <mxGeometry x="-100" y="460" width="30" height="30" as="geometry" />
        </mxCell>
        <mxCell id="IxO6dU_HPFh1SA8IVn4u-86" value="N" style="text;html=1;align=center;verticalAlign=middle;resizable=0;points=[];autosize=1;strokeColor=none;fillColor=none;" parent="1" vertex="1">
          <mxGeometry x="-105" y="533" width="30" height="30" as="geometry" />
        </mxCell>
        <mxCell id="IxO6dU_HPFh1SA8IVn4u-87" value="Fornece" style="shape=rhombus;perimeter=rhombusPerimeter;whiteSpace=wrap;html=1;align=center;" parent="1" vertex="1">
          <mxGeometry x="-355" y="543" width="80" height="60" as="geometry" />
        </mxCell>
        <mxCell id="IxO6dU_HPFh1SA8IVn4u-88" value="" style="shape=link;html=1;rounded=0;entryX=1;entryY=0.5;entryDx=0;entryDy=0;exitX=0;exitY=0.5;exitDx=0;exitDy=0;" parent="1" source="IxO6dU_HPFh1SA8IVn4u-36" target="IxO6dU_HPFh1SA8IVn4u-87" edge="1">
          <mxGeometry width="100" relative="1" as="geometry">
            <mxPoint x="20" y="530" as="sourcePoint" />
            <mxPoint x="120" y="530" as="targetPoint" />
          </mxGeometry>
        </mxCell>
        <mxCell id="IxO6dU_HPFh1SA8IVn4u-89" value="" style="endArrow=none;html=1;rounded=0;entryX=0.5;entryY=1;entryDx=0;entryDy=0;exitX=0.5;exitY=0;exitDx=0;exitDy=0;" parent="1" source="IxO6dU_HPFh1SA8IVn4u-87" target="IxO6dU_HPFh1SA8IVn4u-37" edge="1">
          <mxGeometry width="50" height="50" relative="1" as="geometry">
            <mxPoint x="40" y="550" as="sourcePoint" />
            <mxPoint x="90" y="500" as="targetPoint" />
          </mxGeometry>
        </mxCell>
        <mxCell id="IxO6dU_HPFh1SA8IVn4u-90" value="N" style="text;html=1;align=center;verticalAlign=middle;resizable=0;points=[];autosize=1;strokeColor=none;fillColor=none;" parent="1" vertex="1">
          <mxGeometry x="-150" y="568" width="30" height="30" as="geometry" />
        </mxCell>
        <mxCell id="IxO6dU_HPFh1SA8IVn4u-92" value="M" style="text;html=1;align=center;verticalAlign=middle;resizable=0;points=[];autosize=1;strokeColor=none;fillColor=none;" parent="1" vertex="1">
          <mxGeometry x="-340" y="455" width="30" height="30" as="geometry" />
        </mxCell>
        <mxCell id="IxO6dU_HPFh1SA8IVn4u-98" value="quantidade" style="ellipse;whiteSpace=wrap;html=1;" parent="1" vertex="1">
          <mxGeometry x="-355" y="630" width="80" height="40" as="geometry" />
        </mxCell>
        <mxCell id="IxO6dU_HPFh1SA8IVn4u-99" value="" style="endArrow=none;html=1;rounded=0;entryX=0.5;entryY=1;entryDx=0;entryDy=0;exitX=0.5;exitY=0;exitDx=0;exitDy=0;" parent="1" source="IxO6dU_HPFh1SA8IVn4u-98" target="IxO6dU_HPFh1SA8IVn4u-87" edge="1">
          <mxGeometry width="50" height="50" relative="1" as="geometry">
            <mxPoint x="-160" y="570" as="sourcePoint" />
            <mxPoint x="-110" y="520" as="targetPoint" />
          </mxGeometry>
        </mxCell>
        <mxCell id="IxO6dU_HPFh1SA8IVn4u-100" value="Pede" style="shape=rhombus;double=1;perimeter=rhombusPerimeter;whiteSpace=wrap;html=1;align=center;" parent="1" vertex="1">
          <mxGeometry x="775" y="385" width="80" height="60" as="geometry" />
        </mxCell>
        <mxCell id="IxO6dU_HPFh1SA8IVn4u-101" value="&lt;u&gt;id&lt;/u&gt;" style="ellipse;whiteSpace=wrap;html=1;" parent="1" vertex="1">
          <mxGeometry x="-230" y="427.5" width="60" height="30" as="geometry" />
        </mxCell>
        <mxCell id="IxO6dU_HPFh1SA8IVn4u-102" value="&lt;u&gt;telefone&lt;/u&gt;" style="ellipse;whiteSpace=wrap;html=1;" parent="1" vertex="1">
          <mxGeometry x="-290" y="383" width="60" height="27" as="geometry" />
        </mxCell>
        <mxCell id="IxO6dU_HPFh1SA8IVn4u-104" value="morada" style="ellipse;whiteSpace=wrap;html=1;" parent="1" vertex="1">
          <mxGeometry x="-440" y="415" width="60" height="30" as="geometry" />
        </mxCell>
        <mxCell id="IxO6dU_HPFh1SA8IVn4u-105" value="rua" style="ellipse;whiteSpace=wrap;html=1;" parent="1" vertex="1">
          <mxGeometry x="-510" y="405" width="60" height="30" as="geometry" />
        </mxCell>
        <mxCell id="IxO6dU_HPFh1SA8IVn4u-106" value="cod_postal" style="ellipse;whiteSpace=wrap;html=1;" parent="1" vertex="1">
          <mxGeometry x="-445" y="470" width="70" height="30" as="geometry" />
        </mxCell>
        <mxCell id="IxO6dU_HPFh1SA8IVn4u-107" value="localidade" style="ellipse;whiteSpace=wrap;html=1;" parent="1" vertex="1">
          <mxGeometry x="-445" y="360" width="70" height="40" as="geometry" />
        </mxCell>
        <mxCell id="IxO6dU_HPFh1SA8IVn4u-108" value="" style="endArrow=none;html=1;rounded=0;entryX=0;entryY=0.5;entryDx=0;entryDy=0;exitX=1;exitY=0.5;exitDx=0;exitDy=0;" parent="1" source="IxO6dU_HPFh1SA8IVn4u-37" target="IxO6dU_HPFh1SA8IVn4u-101" edge="1">
          <mxGeometry width="50" height="50" relative="1" as="geometry">
            <mxPoint x="-210" y="560" as="sourcePoint" />
            <mxPoint x="-160" y="510" as="targetPoint" />
          </mxGeometry>
        </mxCell>
        <mxCell id="IxO6dU_HPFh1SA8IVn4u-109" value="" style="endArrow=none;html=1;rounded=0;entryX=0.5;entryY=1;entryDx=0;entryDy=0;exitX=0.75;exitY=0;exitDx=0;exitDy=0;" parent="1" source="IxO6dU_HPFh1SA8IVn4u-37" target="IxO6dU_HPFh1SA8IVn4u-102" edge="1">
          <mxGeometry width="50" height="50" relative="1" as="geometry">
            <mxPoint x="-210" y="560" as="sourcePoint" />
            <mxPoint x="-160" y="510" as="targetPoint" />
          </mxGeometry>
        </mxCell>
        <mxCell id="IxO6dU_HPFh1SA8IVn4u-110" value="" style="endArrow=none;html=1;rounded=0;entryX=0.792;entryY=0.922;entryDx=0;entryDy=0;entryPerimeter=0;exitX=0;exitY=0.5;exitDx=0;exitDy=0;" parent="1" source="IxO6dU_HPFh1SA8IVn4u-37" target="IxO6dU_HPFh1SA8IVn4u-104" edge="1">
          <mxGeometry width="50" height="50" relative="1" as="geometry">
            <mxPoint x="-210" y="560" as="sourcePoint" />
            <mxPoint x="-160" y="510" as="targetPoint" />
          </mxGeometry>
        </mxCell>
        <mxCell id="IxO6dU_HPFh1SA8IVn4u-111" value="" style="endArrow=none;html=1;rounded=0;entryX=0.5;entryY=1;entryDx=0;entryDy=0;exitX=0.5;exitY=0;exitDx=0;exitDy=0;" parent="1" source="IxO6dU_HPFh1SA8IVn4u-104" target="IxO6dU_HPFh1SA8IVn4u-107" edge="1">
          <mxGeometry width="50" height="50" relative="1" as="geometry">
            <mxPoint x="-210" y="560" as="sourcePoint" />
            <mxPoint x="-160" y="510" as="targetPoint" />
          </mxGeometry>
        </mxCell>
        <mxCell id="IxO6dU_HPFh1SA8IVn4u-112" value="" style="endArrow=none;html=1;rounded=0;exitX=0;exitY=0;exitDx=0;exitDy=0;" parent="1" source="IxO6dU_HPFh1SA8IVn4u-104" edge="1">
          <mxGeometry width="50" height="50" relative="1" as="geometry">
            <mxPoint x="-210" y="560" as="sourcePoint" />
            <mxPoint x="-450" y="420" as="targetPoint" />
          </mxGeometry>
        </mxCell>
        <mxCell id="IxO6dU_HPFh1SA8IVn4u-113" value="" style="endArrow=none;html=1;rounded=0;entryX=0.5;entryY=0;entryDx=0;entryDy=0;exitX=0.5;exitY=1;exitDx=0;exitDy=0;" parent="1" source="IxO6dU_HPFh1SA8IVn4u-104" target="IxO6dU_HPFh1SA8IVn4u-106" edge="1">
          <mxGeometry width="50" height="50" relative="1" as="geometry">
            <mxPoint x="-210" y="560" as="sourcePoint" />
            <mxPoint x="-160" y="510" as="targetPoint" />
          </mxGeometry>
        </mxCell>
        <mxCell id="IxO6dU_HPFh1SA8IVn4u-114" value="&lt;u&gt;id&lt;/u&gt;" style="ellipse;whiteSpace=wrap;html=1;" parent="1" vertex="1">
          <mxGeometry x="-180" y="605" width="60" height="30" as="geometry" />
        </mxCell>
        <mxCell id="IxO6dU_HPFh1SA8IVn4u-115" value="nome" style="ellipse;whiteSpace=wrap;html=1;" parent="1" vertex="1">
          <mxGeometry x="-125" y="635" width="70" height="40" as="geometry" />
        </mxCell>
        <mxCell id="IxO6dU_HPFh1SA8IVn4u-116" value="preço" style="ellipse;whiteSpace=wrap;html=1;" parent="1" vertex="1">
          <mxGeometry x="-45" y="620" width="60" height="30" as="geometry" />
        </mxCell>
        <mxCell id="IxO6dU_HPFh1SA8IVn4u-117" value="" style="endArrow=none;html=1;rounded=0;entryX=0;entryY=0;entryDx=0;entryDy=0;exitX=0.67;exitY=1.033;exitDx=0;exitDy=0;exitPerimeter=0;" parent="1" source="IxO6dU_HPFh1SA8IVn4u-36" target="IxO6dU_HPFh1SA8IVn4u-116" edge="1">
          <mxGeometry width="50" height="50" relative="1" as="geometry">
            <mxPoint x="-50" y="570" as="sourcePoint" />
            <mxPoint y="520" as="targetPoint" />
          </mxGeometry>
        </mxCell>
        <mxCell id="IxO6dU_HPFh1SA8IVn4u-118" value="" style="endArrow=none;html=1;rounded=0;entryX=0.5;entryY=0;entryDx=0;entryDy=0;exitX=0.5;exitY=1;exitDx=0;exitDy=0;" parent="1" source="IxO6dU_HPFh1SA8IVn4u-36" target="IxO6dU_HPFh1SA8IVn4u-115" edge="1">
          <mxGeometry width="50" height="50" relative="1" as="geometry">
            <mxPoint x="-50" y="570" as="sourcePoint" />
            <mxPoint y="520" as="targetPoint" />
          </mxGeometry>
        </mxCell>
        <mxCell id="IxO6dU_HPFh1SA8IVn4u-119" value="" style="endArrow=none;html=1;rounded=0;entryX=1;entryY=0;entryDx=0;entryDy=0;exitX=0.25;exitY=1;exitDx=0;exitDy=0;" parent="1" source="IxO6dU_HPFh1SA8IVn4u-36" target="IxO6dU_HPFh1SA8IVn4u-114" edge="1">
          <mxGeometry width="50" height="50" relative="1" as="geometry">
            <mxPoint x="-50" y="570" as="sourcePoint" />
            <mxPoint y="520" as="targetPoint" />
          </mxGeometry>
        </mxCell>
        <mxCell id="wYZl_W-mqcYjOi9JRlt4-1" value="&lt;u&gt;id&lt;/u&gt;" style="ellipse;whiteSpace=wrap;html=1;" parent="1" vertex="1">
          <mxGeometry x="100" y="402.5" width="40" height="20" as="geometry" />
        </mxCell>
        <mxCell id="wYZl_W-mqcYjOi9JRlt4-3" value="nome" style="ellipse;whiteSpace=wrap;html=1;" parent="1" vertex="1">
          <mxGeometry x="240" y="397.5" width="50" height="30" as="geometry" />
        </mxCell>
        <mxCell id="wYZl_W-mqcYjOi9JRlt4-4" value="" style="endArrow=none;html=1;rounded=0;entryX=0;entryY=1;entryDx=0;entryDy=0;exitX=1;exitY=0;exitDx=0;exitDy=0;" parent="1" target="wYZl_W-mqcYjOi9JRlt4-3" edge="1">
          <mxGeometry width="50" height="50" relative="1" as="geometry">
            <mxPoint x="235" y="430" as="sourcePoint" />
            <mxPoint x="270" y="380" as="targetPoint" />
          </mxGeometry>
        </mxCell>
        <mxCell id="wYZl_W-mqcYjOi9JRlt4-5" value="" style="endArrow=none;html=1;rounded=0;entryX=0.775;entryY=0.927;entryDx=0;entryDy=0;entryPerimeter=0;exitX=0;exitY=0;exitDx=0;exitDy=0;" parent="1" target="wYZl_W-mqcYjOi9JRlt4-1" edge="1">
          <mxGeometry width="50" height="50" relative="1" as="geometry">
            <mxPoint x="140" y="430" as="sourcePoint" />
            <mxPoint x="270" y="380" as="targetPoint" />
          </mxGeometry>
        </mxCell>
        <mxCell id="wYZl_W-mqcYjOi9JRlt4-6" value="SubEmpresa" style="whiteSpace=wrap;html=1;align=center;" parent="1" vertex="1">
          <mxGeometry x="135" y="431.25" width="98.75" height="28.75" as="geometry" />
        </mxCell>
        <mxCell id="qD5YaeSr_qYtOEoVaorr-1" value="nome" style="ellipse;whiteSpace=wrap;html=1;" vertex="1" parent="1">
          <mxGeometry x="-155" y="375" width="60" height="30" as="geometry" />
        </mxCell>
        <mxCell id="qD5YaeSr_qYtOEoVaorr-2" value="" style="endArrow=none;html=1;rounded=0;entryX=0.5;entryY=1;entryDx=0;entryDy=0;" edge="1" parent="1" source="IxO6dU_HPFh1SA8IVn4u-76" target="qD5YaeSr_qYtOEoVaorr-1">
          <mxGeometry width="50" height="50" relative="1" as="geometry">
            <mxPoint x="170" y="430" as="sourcePoint" />
            <mxPoint x="220" y="380" as="targetPoint" />
          </mxGeometry>
        </mxCell>
      </root>
    </mxGraphModel>
  </diagram>
</mxfile>
